<svg width="134" height="64" viewBox="0 0 134 64" fill="none" xmlns="http://www.w3.org/2000/svg">
<path d="M10.5719 38.0396C10.1118 36.0253 9.96417 34.011 10.0891 32.0479L2.04124 37.5503C-0.276002 39.1322 0.053408 40.7595 2.8023 41.3172L12.537 43.2917C11.668 41.6757 10.9978 39.9174 10.5719 38.0396Z" fill="#FFCE00"/>
<path d="M26.1787 12.8393C27.928 12.4182 29.6829 12.2361 31.4038 12.2589L25.6107 2.68797C23.1799 -1.32931 20.9024 -0.777359 20.5503 3.89998L19.6699 15.6332C21.6123 14.3699 23.7933 13.4083 26.1787 12.8393Z" fill="#FFCE00"/>
<path d="M47.5196 20.1873L51.6997 4.67585C53.0231 -0.21772 51.0239 -1.44681 47.264 1.95024L35.3711 12.6933C40.1589 13.6948 44.4697 16.3578 47.5196 20.1873Z" fill="#FFCE00"/>
<path d="M10.6963 28.0998C11.7016 24.202 13.803 20.6684 16.7337 17.9258L6.57301 15.1148C2.05211 13.8686 0.774226 15.8261 3.72758 19.4735L10.6963 28.0998Z" fill="#FFCE00"/>
<path d="M49.141 44.1116C48.0278 45.9836 46.6306 47.6907 44.9893 49.1417L47.3122 49.8302C51.8047 51.1674 53.1223 49.227 50.2428 45.5227L49.141 44.1116Z" fill="#FFCE00"/>
<path d="M15.4517 47.4426L13.9978 55.7219C13.5093 58.4873 14.9008 59.3864 17.2181 57.8102L24.0221 53.1727C20.745 52.0005 17.7974 50.0374 15.4517 47.4426Z" fill="#FFCE00"/>
<path d="M35.9681 53.8164C34.4858 54.1749 33.0034 54.357 31.5381 54.3911L34.5766 58.5279C36.235 60.7926 37.848 60.4056 38.3081 57.6345L39.1089 52.7979C38.1093 53.2132 37.0586 53.5547 35.9681 53.8164Z" fill="#FFCE00"/>
<path d="M36.4599 40.7877C35.4944 40.7877 34.705 40.6909 34.705 39.7293V33.9993C34.705 32.2979 33.9723 30.955 32.1605 30.955C30.2295 30.955 29.5309 32.4458 29.5309 33.9993V39.7293C29.5309 40.6966 28.7415 40.7877 27.7759 40.7877C26.8104 40.7877 25.9926 40.6909 25.9926 39.7293V33.9993C25.9926 32.2979 25.2599 30.955 23.4482 30.955C21.4887 30.955 20.8185 32.4458 20.8185 33.9993V39.7293C20.8185 40.6966 20.0291 40.7877 19.0636 40.7877C18.098 40.7877 17.3086 40.6909 17.3086 39.7293V29.4699C17.3086 28.2009 17.9788 28.1554 19.0636 28.1554C20.0859 28.1554 20.8185 28.1953 20.8185 29.1626V29.9308C21.5512 28.5822 22.8972 27.7913 24.4761 27.7913C26.3447 27.7913 27.7191 28.6391 28.5711 29.9877C29.4741 28.6675 31.0871 27.7913 33.0749 27.7913C36.6133 27.7913 38.249 30.1925 38.249 33.7091V39.7293C38.2433 40.6909 37.4255 40.7877 36.4599 40.7877Z" fill="white"/>
<path d="M42.588 28.1478C41.6225 28.1478 40.833 28.1877 40.833 29.155V39.7217C40.833 40.689 41.2874 40.7801 42.588 40.7801C43.8886 40.7801 44.3429 40.8142 44.3429 39.551V29.1493C44.3429 28.1877 43.5535 28.1478 42.588 28.1478Z" fill="white"/>
<path d="M44.5189 24.6695C44.5189 23.2014 43.968 22.8714 42.5879 22.8657H42.5822C42.5822 22.8657 42.5822 22.8657 42.5765 22.8657C41.1964 22.8657 40.6455 23.2014 40.6455 24.6695C40.6455 26.1376 41.1964 26.4733 42.5765 26.4733H42.5822H42.5879C43.968 26.4733 44.5189 26.1376 44.5189 24.6695Z" fill="white"/>
<path d="M47.0215 24.5017C47.0215 23.5343 47.8109 23.4945 48.7765 23.4945C49.742 23.4945 50.5314 23.5286 50.5314 24.5017V29.8504C51.4118 28.4165 52.8998 27.7735 54.4219 27.7735C58.284 27.7735 60.357 31.0226 60.357 34.4823C60.357 37.9362 58.3124 41.191 54.4219 41.191C52.6953 41.191 51.2641 40.4001 50.4178 39.1084V39.7172C50.4178 40.6846 49.7476 40.7756 48.7197 40.7756C47.6973 40.7756 47.0272 40.6277 47.0272 39.6603V24.5017H47.0215ZM53.6608 30.7609C51.673 30.7609 50.5314 32.5192 50.5314 34.4823C50.5314 36.4454 51.6446 38.2036 53.6608 38.2036C55.6771 38.2036 56.8471 36.5307 56.8471 34.4823C56.8471 32.4281 55.6771 30.7609 53.6608 30.7609Z" fill="white"/>
<path d="M75.2828 39.7551C75.2828 40.7225 74.6126 40.7851 73.5846 40.7851C72.5566 40.7851 71.8864 40.6883 71.8864 39.721V39.0894C71.0402 40.4664 69.6089 41.2004 67.8824 41.2004C63.9919 41.2004 61.9473 37.9457 61.9473 34.4917C61.9473 31.0378 64.026 27.783 67.8824 27.783C69.4045 27.783 70.9266 28.4259 71.7728 29.8599V29.1315C71.7728 28.1642 72.5623 28.1471 73.5278 28.1471C74.4933 28.1471 75.2828 28.1642 75.2828 29.1315V39.7551ZM68.6434 38.2131C70.6597 38.2131 71.7728 36.4548 71.7728 34.4917C71.7728 32.5286 70.6313 30.7703 68.6434 30.7703C66.6272 30.7703 65.4572 32.4432 65.4572 34.4917C65.4572 36.5402 66.6272 38.2131 68.6434 38.2131Z" fill="white"/>
<path d="M84.1348 30.9467C82.1754 30.9467 81.3859 32.4375 81.3859 33.991V39.7494C81.3859 40.7168 80.5965 40.7794 79.631 40.7794C78.6654 40.7794 77.876 40.7111 77.876 39.7494V29.16C77.876 28.1471 78.637 28.1471 79.631 28.1471C80.6249 28.1471 81.3859 28.1471 81.3859 29.16V29.9225C82.0902 28.6308 83.3454 27.783 85.1571 27.783C88.4285 27.783 90.3028 30.3037 90.3028 33.8146V39.7494C90.3028 40.7168 89.5133 40.7794 88.5478 40.7794C87.5823 40.7794 86.7928 40.7111 86.7928 39.7494V33.991C86.7985 32.2953 85.9466 30.9467 84.1348 30.9467Z" fill="white"/>
<path d="M112.325 41.1942C108.378 41.1942 105.629 38.1784 105.629 34.4855C105.629 30.7925 108.378 27.7767 112.325 27.7767C116.272 27.7767 119.021 30.7925 119.021 34.4855C119.021 38.1784 116.272 41.1942 112.325 41.1942ZM112.325 30.8267C110.309 30.8267 109.082 32.5281 109.082 34.4912C109.082 36.4543 110.309 38.15 112.325 38.15C114.341 38.15 115.568 36.4486 115.568 34.4912C115.568 32.5281 114.341 30.8267 112.325 30.8267Z" fill="white"/>
<path d="M103.566 37.7573C102.697 36.7957 102.498 36.8811 101.93 37.2623C101.362 37.6435 100.675 38.1955 99.4196 38.1955C97.1705 38.1955 96.0005 36.4372 96.0005 34.4798C96.0005 32.5224 97.1648 30.7641 99.4196 30.7641C100.675 30.7641 101.368 31.3104 101.93 31.6973C102.498 32.0899 102.697 32.1639 103.566 31.2022C104.435 30.2406 104.276 29.9049 103.889 29.5009C103.043 28.5677 101.464 27.7767 99.3912 27.7767C95.1543 27.7767 92.502 30.73 92.502 34.4741C92.502 38.2183 95.16 41.1715 99.3912 41.1715C101.464 41.1715 103.043 40.3805 103.889 39.4473C104.406 38.8271 104.401 38.6735 103.566 37.7573Z" fill="white"/>
<path d="M114.812 43.401H81.6934C79.5031 43.401 77.7275 45.1834 77.7275 47.3821V56.0189C77.7275 58.2176 79.5031 60 81.6934 60H114.812C117.003 60 118.778 58.2176 118.778 56.0189V47.3821C118.778 45.1834 117.003 43.401 114.812 43.401Z" fill="#FFCE00"/>
<path d="M90.0291 54.0154H85.9779C84.8562 54.0154 84.5828 53.7296 84.5828 52.5665V47.7279C84.589 47.6641 84.5811 47.5997 84.5595 47.5393C84.5379 47.4789 84.5033 47.4241 84.4581 47.3787C84.413 47.3334 84.3583 47.2986 84.2982 47.277C84.238 47.2553 84.1738 47.2473 84.1102 47.2535H82.8092C82.7449 47.2471 82.68 47.2549 82.619 47.2763C82.558 47.2976 82.5024 47.3321 82.4561 47.3773C82.4097 47.4225 82.3737 47.4772 82.3506 47.5378C82.3275 47.5984 82.3179 47.6632 82.3223 47.7279V52.7351C82.3223 55.1501 83.3615 56.1361 85.9039 56.1361H90.0291C90.0927 56.1423 90.1569 56.1343 90.217 56.1126C90.2772 56.091 90.3318 56.0562 90.377 56.0109C90.4222 55.9655 90.4568 55.9107 90.4784 55.8503C90.4999 55.7899 90.5079 55.7255 90.5017 55.6616V54.4784C90.5061 54.4155 90.4968 54.3524 90.4745 54.2934C90.4521 54.2344 90.4173 54.1811 90.3723 54.137C90.3273 54.0929 90.2733 54.0593 90.2141 54.0383C90.1548 54.0173 90.0917 54.0095 90.0291 54.0154Z" fill="#009330"/>
<path d="M99.0797 48.2994C98.6697 47.5507 98.2427 47.2734 97.511 47.2734H96.7992C96.1644 47.2734 95.7601 47.5592 95.353 48.2994L91.4014 55.5587C91.3604 55.6186 91.3367 55.6887 91.3326 55.7612C91.3286 55.8338 91.3445 55.9061 91.3786 55.9702C91.4178 56.0289 91.4722 56.0758 91.5358 56.106C91.5995 56.1362 91.6701 56.1485 91.7402 56.1417H93.3117C93.406 56.15 93.5006 56.1289 93.5826 56.0814C93.6646 56.0338 93.7301 55.9621 93.77 55.8759L94.5444 54.424H99.9537L100.745 55.8702C100.783 55.9592 100.849 56.0336 100.933 56.0825C101.016 56.1313 101.113 56.1521 101.209 56.1417H102.738C102.806 56.1476 102.874 56.1351 102.936 56.1055C102.998 56.0758 103.05 56.0301 103.088 55.9731C103.122 55.9077 103.137 55.8347 103.133 55.7613C103.129 55.688 103.106 55.6171 103.065 55.5558L99.0797 48.2994ZM98.9715 52.6207H95.5209L97.2291 49.4083L98.9715 52.6207Z" fill="#009330"/>
<path d="M113.497 51.569C113.706 51.376 113.871 51.1394 113.979 50.8757C114.087 50.612 114.136 50.3278 114.123 50.0429V49.4713C114.123 47.948 113.355 47.2678 111.627 47.2678H104.7C104.623 47.2608 104.546 47.2707 104.474 47.297C104.402 47.3232 104.336 47.3651 104.282 47.4196C104.227 47.4742 104.186 47.5401 104.159 47.6126C104.133 47.6852 104.123 47.7626 104.13 47.8394V55.5816C104.123 55.6586 104.132 55.7362 104.158 55.809C104.184 55.8818 104.226 55.9479 104.281 56.0025C104.335 56.0572 104.401 56.0991 104.473 56.1251C104.546 56.1512 104.623 56.1608 104.7 56.1532H111.857C113.431 56.1532 114.197 55.4016 114.197 53.8525V53.1524C114.215 52.8515 114.16 52.5509 114.038 52.2755C113.916 52.0001 113.731 51.7579 113.497 51.569ZM106.38 52.5122H111.114C111.891 52.5122 111.968 52.7751 111.968 53.0666V53.5267C111.968 53.8726 111.857 54.0583 111.282 54.0583H106.374L106.38 52.5122ZM111.943 50.2744C111.943 50.5602 111.883 50.7802 111.114 50.7802H106.374V49.3513H111.248C111.817 49.3513 111.931 49.5427 111.931 49.8714L111.943 50.2744Z" fill="#009330"/>
</svg>
