<svg width="56" height="56" viewBox="0 0 56 56" fill="none" xmlns="http://www.w3.org/2000/svg">
<path d="M53.5179 21.171C53.439 20.7839 53.0838 20.4644 52.6991 20.4644H49.0297V16.6509C49.0297 16.2831 48.7337 15.896 48.2602 15.896H44.9064V12.6632C44.9064 12.2954 44.6105 11.9082 44.137 11.9082H3.34851C2.89476 11.9082 2.5791 12.2179 2.5791 12.6632V34.8281C2.5791 35.1959 2.87503 35.5831 3.34851 35.5831H6.70234V38.8739C6.70234 39.2901 7.04759 39.6289 7.47175 39.6289H11.1412V43.3844C11.1412 43.8005 11.4865 44.1393 11.9106 44.1393H52.7485C53.1726 44.1393 53.5179 43.8005 53.5179 43.3844V21.171ZM7.41256 15.896C7.01799 15.896 6.64315 16.2638 6.64315 16.6509V34.0635H4.0686V13.3697H43.4169V15.9056H7.41256V15.896ZM11.8021 20.4644C11.3977 20.4644 11.082 20.7742 11.082 21.171V38.0609H8.18197V17.4156H47.5303V20.4741H11.8021V20.4644ZM51.9297 42.6294H12.5715V21.926H51.9199V42.6294H51.9297Z" fill="#141518"/>
<path d="M48.3106 27.2398C47.2749 27.2398 46.4561 26.4365 46.4561 25.4202C46.4561 25.004 46.1109 24.6652 45.6867 24.6652H18.7673C18.2938 24.6652 17.9979 25.062 17.9979 25.4202C17.9979 26.5623 17.3074 27.2398 16.1434 27.2398C15.6699 27.2398 15.374 27.6367 15.374 27.9948V36.5026C15.374 36.9188 15.7193 37.2576 16.1434 37.2576C17.3074 37.2576 17.9979 37.9351 17.9979 39.0773C17.9979 39.5418 18.4023 39.8322 18.7673 39.8322H45.7459C46.1306 39.8322 46.466 39.4741 46.466 39.0773C46.466 38.061 47.2847 37.2576 48.3205 37.2576C48.7446 37.2576 49.0899 36.9188 49.0899 36.5026V27.9948C49.0899 27.5302 48.6854 27.2398 48.3205 27.2398H48.3106ZM47.5905 35.9025L47.413 35.9509C46.318 36.2413 45.4204 37.1221 45.1245 38.1965L45.0751 38.3707H19.4874L19.4381 38.1868C19.1323 37.0059 18.284 36.1929 17.1101 35.9509L16.9128 35.9122V28.7497L17.1003 28.7014C18.3037 28.4013 19.1323 27.5883 19.4381 26.4074L19.4874 26.2235H45.0751L45.1245 26.3978C45.4204 27.4721 46.318 28.3529 47.413 28.6433L47.5905 28.6917V35.8929V35.9025Z" fill="#141518"/>
<path d="M42.2641 31.4989H40.5477C40.0742 31.4989 39.7783 31.8957 39.7783 32.2538C39.7783 32.67 40.1236 33.0088 40.5477 33.0088H42.2641C42.6685 33.0088 42.9941 32.6797 43.0335 32.2345C43.0335 31.7892 42.6291 31.4989 42.2641 31.4989Z" fill="#009330"/>
<path d="M24.0141 31.4989H22.2977C21.8242 31.4989 21.5283 31.8957 21.5283 32.2538C21.5283 32.67 21.8736 33.0088 22.2977 33.0088H24.0141C24.4185 33.0088 24.7441 32.6797 24.7835 32.2345C24.7835 31.7892 24.3791 31.4989 24.0141 31.4989Z" fill="#009330"/>
<path d="M32.2518 27.4531C30.9695 27.4531 29.7463 27.9661 28.898 28.8469C28.0398 29.7374 27.5762 30.8892 27.5762 32.0991C27.5762 33.3089 28.0497 34.5091 28.898 35.3415C29.8351 36.261 30.9892 36.745 32.2518 36.745C33.5144 36.745 34.6784 36.261 35.6056 35.3415C36.454 34.4607 36.9274 33.3089 36.9274 32.0991C36.9274 30.8892 36.454 29.689 35.6056 28.8566C34.6685 27.9371 33.5144 27.4531 32.2518 27.4531ZM34.4614 34.422C33.8695 35.0028 33.0705 35.3318 32.2518 35.3318C31.3739 35.3318 30.5848 35.0028 30.0324 34.4123C29.4011 33.7929 29.0558 32.9895 29.0558 32.0991C29.0558 31.2086 29.4109 30.3859 30.0422 29.7761C30.6341 29.1953 31.4331 28.8663 32.2518 28.8663C33.0705 28.8663 33.8498 29.1857 34.4515 29.718C35.0927 30.3471 35.4478 31.1892 35.4478 32.0991C35.4478 33.0089 35.0927 33.8122 34.4614 34.422Z" fill="#009330"/>
</svg>
